<svg xmlns="http://www.w3.org/2000/svg" viewBox="0 0 181 50" fill="currentColor"><path d="M71.355 50h-9.727c-7.757 0-8.857-.15-12.439-1.926-2.199-1.024-3.957-2.875-4.905-5.162-1.104-2.586-1.318-4.8-1.318-12.11V.74h11.202v31.389c0 3.4.215 4.358 1.168 5.465.806.964 2.042 1.328 4.314 1.328h11.705V50ZM33.304 7.683c-1.245-1.705-2.777-3.249-4.61-4.434C25.699 1.183 21.879 0 18.372 0c-5.78 0-11.565 2.953-15 7.683C.95 11.08.002 14.623.002 20.015v10.786H0c0 7.31.217 9.525 1.315 12.11.951 2.288 2.709 4.139 4.908 5.163C9.805 49.849 10.902 50 18.66 50h.755V38.922h-2.725c-2.277 0-3.515-.364-4.316-1.328-.958-1.107-1.177-2.065-1.177-5.465V20.311c0-3.245.295-4.652 1.249-6.206C13.76 12.19 15.885 11 18.37 11c2.415 0 4.543 1.19 5.855 3.105.952 1.554 1.244 3.103 1.244 6.206V50h11.278V20.015c0-5.46-.96-8.934-3.444-12.332ZM89.523 38.923v-12.05h2.147v10.123h4.628v1.927h-6.775ZM102.951 35.754c0 2.502-.591 3.324-3.05 3.324-.59 0-1.316-.055-2.166-.177l.122-1.957c.865.124 1.438.191 1.99.191.939 0 .953-.173.953-1.397l.019-8.866h2.15l-.018 8.882ZM110.145 39.041c-1.632 0-4.162-.646-4.162-3.6v-8.569h2.133v8.57c0 1.154.848 1.643 2.045 1.643 1.177 0 2.025-.49 2.025-1.643l-.014-8.57h2.131v8.57c0 2.953-2.512 3.6-4.158 3.6ZM123.781 38.923l-3.396-7.872-.553-1.485-.018-.018.05 9.375h-2.115v-12.05h3.069l3.398 8.025.486 1.558.032.015-.052-9.599h2.098v12.05h-2.999ZM138.545 38.536c-1.057.28-2.442.542-3.569.542-1.628 0-2.859-.368-3.69-1.19-1.005-1.03-1.422-2.728-1.422-5.088 0-4.283 1.49-6.084 5.112-6.084 1.109 0 1.819.087 3.016.245l-.157 2.01c-1.04-.192-1.923-.297-2.877-.297-1.906 0-2.873.63-2.873 4.144 0 2.01.275 3.165.915 3.743.469.455 1.146.56 1.958.56a5.72 5.72 0 0 0 1.456-.177v-4.022h2.131v5.614ZM145.806 33.709h-1.923v3.34h1.923c.886 0 1.231-.453 1.231-1.574 0-1.05-.156-1.766-1.231-1.766Zm-.052-4.982h-1.871v3.077h1.7c1.073.019 1.28-.507 1.28-1.573 0-1.015-.365-1.487-1.109-1.504Zm2.566 9.511c-.521.508-1.283.699-2.392.699h-4.176l-.018-12.065h4.331c1.006 0 1.734.247 2.185.719.589.593.78 1.52.78 2.587 0 .945-.417 1.94-1.282 2.448v.035c.919.279 1.49 1.748 1.49 2.814 0 1.12-.277 2.133-.918 2.763ZM152.149 38.923v-12.05h6.931v1.923h-4.78v2.973h3.274v1.924H154.3v3.303h4.78v1.927h-6.931ZM165.614 28.796h-1.803l.018 3.463h1.803c1.092 0 1.263-.648 1.263-1.784 0-1.102-.243-1.68-1.281-1.68Zm1.214 10.127-1.889-4.741h-1.11v4.74h-2.151l.022-12.05h3.982c1.024 0 1.822.28 2.341.753.728.664.97 1.645.97 2.798 0 1.154-.242 2.308-.934 2.99-.261.28-.609.437-1.042.575l2.079 4.935h-2.268ZM180.188 38.536c-1.058.28-2.444.542-3.57.542-1.629 0-2.861-.368-3.691-1.19-1.007-1.03-1.42-2.728-1.42-5.088 0-4.283 1.49-6.084 5.111-6.084 1.11 0 1.818.087 3.015.245l-.155 2.01c-1.042-.192-1.924-.297-2.877-.297-1.908 0-2.878.63-2.878 4.144 0 2.01.279 3.165.92 3.743.467.455 1.141.56 1.958.56a5.73 5.73 0 0 0 1.456-.177v-4.022h2.131v5.614ZM94.513 15.498l-.278-1.399h-.034l-.277 1.399-1.057 4.352 2.703-.015-1.056-4.338Zm2.183 8.605-.606-2.347h-3.725l-.607 2.347h-2.235L92.9 11.932h2.635l3.379 12.171h-2.219ZM104.736 13.995v10.108h-2.133V13.995l-2.91-.019v-1.923h7.938v1.942h-2.895ZM114.06 13.976h-1.803l.018 3.464h1.801c1.093 0 1.266-.648 1.266-1.784 0-1.102-.244-1.68-1.282-1.68Zm1.213 10.127-1.889-4.74h-1.109v4.74h-2.149l.017-12.05h3.986c1.022 0 1.82.28 2.339.752.728.665.971 1.645.971 2.799 0 1.153-.243 2.308-.936 2.99-.26.28-.606.436-1.04.575l2.08 4.934h-2.27ZM120.385 24.103v-12.05h2.147v12.05h-2.147ZM130.123 24.222c-1.629 0-4.159-.646-4.159-3.6v-8.57h2.132v8.57c0 1.154.849 1.643 2.045 1.643 1.177 0 2.027-.489 2.027-1.642l-.017-8.57h2.131v8.57c0 2.953-2.512 3.6-4.159 3.6ZM147.8 24.103l.052-9.795h-.036l-.329 1.453-2.341 8.342h-2.615l-2.354-8.29-.33-1.505h-.036l.036 9.795h-2.115v-12.05h3.536l2.319 8.602.296 1.401h.032l.298-1.4 2.235-8.603h3.499v12.05H147.8Z"/></svg>
