<?xml version="1.0" encoding="UTF-8"?>
<svg width="172px" height="41px" viewBox="0 0 172 41" version="1.1" xmlns="http://www.w3.org/2000/svg" xmlns:xlink="http://www.w3.org/1999/xlink">
    <g stroke="none" stroke-width="1" fill="#000000" fill-rule="evenodd">
		<path d="M84.2051169,12.6516939 L77.5003185,12.6516939 L77.5003185,11.0473092 C77.5003185,7.32218407 79.3914292,6.46253981 81.91291,6.46253981 L85.6953092,6.46253981 L85.6953092,0.0442895553 L81.0532658,0.0442895553 C73.6608232,0.0442895553 70.050424,4.62888108 70.050424,10.9898573 L70.050424,12.6516939 L56.9271975,12.6516939 L52.285332,19.2808976 L47.6434664,12.6516939 L38.8182834,12.6516939 L58.0790817,40.159243 L66.9044426,40.159243 L56.3542792,25.0919007 L65.0647363,12.6518718 L65.0647363,19.0702999 L70.050424,19.0702999 L70.050424,40.159243 L77.5003185,40.159243 L77.5003185,19.0702999 L84.2051169,19.0702999 L84.2051169,12.6516939"></path>
		<path d="M14.1548707,23.8841655 L19.4843806,9.44274664 L24.6993423,23.8841655 L14.1548707,23.8841655 Z M38.4703702,39.0109162 L23.7249721,0.617385729 L15.1863371,0.617385729 L0,40.159243 L8.13753878,40.159243 L11.5186639,31.047334 L27.2780972,31.047334 L30.5444964,40.159243 L45.8041158,40.159243 L51.9416877,31.3938242 L43.8037932,31.3938242 L38.4703702,39.0109162 Z"></path>
		<path d="M97.8891665,33.855363 C93.3620269,33.855363 90.7258201,30.3024157 90.7258201,26.3483723 C90.7258201,22.3939731 93.3620269,18.9555739 97.8891665,18.9555739 C102.416484,18.9555739 105.052869,22.3939731 105.052869,26.3483723 C105.052869,30.3024157 102.416484,33.855363 97.8891665,33.855363 Z M97.8891665,12.0789535 C89.6943537,12.0789535 83.5626515,18.4972037 83.5626515,26.4056463 C83.5626515,34.3139111 89.6943537,40.7323392 97.8891665,40.7323392 C106.084157,40.7323392 112.215859,34.3139111 112.215859,26.4056463 C112.215859,18.4972037 106.084157,12.0789535 97.8891665,12.0789535 Z"></path>
		<path d="M127.905746,33.855363 C123.378606,33.855363 120.742399,30.3024157 120.742399,26.3483723 C120.742399,22.3939731 123.378606,18.9555739 127.905746,18.9555739 C132.433063,18.9555739 135.06927,22.3939731 135.06927,26.3483723 C135.06927,30.3024157 132.433063,33.855363 127.905746,33.855363 Z M127.905746,12.0789535 C119.710933,12.0789535 113.579053,18.4972037 113.579053,26.4056463 C113.579053,34.3139111 119.710933,40.7323392 127.905746,40.7323392 C136.100558,40.7323392 142.232438,34.3139111 142.232438,26.4056463 C142.232438,18.4972037 136.100558,12.0789535 127.905746,12.0789535 Z"></path>
		<path d="M157.922325,34.371363 C153.739007,34.371363 150.816252,31.4484302 150.816252,26.1189204 C150.816252,21.0761365 153.910651,18.2106556 157.922325,18.2106556 C161.704724,18.2106556 164.799301,20.8466846 164.799301,26.0043723 C164.799301,31.4484302 161.704724,34.371363 157.922325,34.371363 Z M164.398027,0.0442895553 L164.398027,15.5169969 C163.595835,13.9126122 161.360724,12.0789535 156.661762,12.0789535 C148.925142,12.0789535 143.595632,18.1533816 143.595632,26.2334685 C143.595632,34.6575553 149.096964,40.7323392 156.833584,40.7323392 C160.443806,40.7323392 163.19456,39.1277766 164.398027,37.12194 L164.684575,40.159243 L171.848099,40.159243 L171.848099,0.0442895553 L164.398027,0.0442895553 Z"></path>
    </g>
</svg>
