<svg xmlns="http://www.w3.org/2000/svg" viewBox="0 0 179.73 34.23"><defs><style>.a{fill:#006e78;}</style></defs><title>Habitek_logo_Sedum</title><polygon class="a" points="11.66 0 11.66 12.99 27.15 12.99 27.15 6.8 11.66 0"/><rect class="a" x="11.66" y="16.02" width="15.49" height="17.69"/><polygon class="a" points="8.46 0 0 6.8 0 33.71 8.46 33.71 8.46 0"/><path class="a" d="M73.16,28.31A5.1,5.1,0,0,0,77,29.83a5.18,5.18,0,0,0,3.82-1.52,5.28,5.28,0,0,0,1.52-3.9,5.28,5.28,0,0,0-1.52-3.9A5.18,5.18,0,0,0,77,19a5.1,5.1,0,0,0-3.8,1.52,5.31,5.31,0,0,0-1.5,3.9,5.31,5.31,0,0,0,1.5,3.9M82.3,14.8h5V34h-5V31.75A7.54,7.54,0,0,1,76,34.55a8.71,8.71,0,0,1-6.59-2.94,10.16,10.16,0,0,1-2.75-7.2,10.16,10.16,0,0,1,2.75-7.2A8.71,8.71,0,0,1,76,14.27a7.54,7.54,0,0,1,6.26,2.8Z" transform="translate(-0.27 -0.32)"/><path class="a" d="M98.21,28.31a5.1,5.1,0,0,0,3.8,1.52,5.18,5.18,0,0,0,3.82-1.52,5.28,5.28,0,0,0,1.52-3.9,5.28,5.28,0,0,0-1.52-3.9A5.18,5.18,0,0,0,102,19a5.1,5.1,0,0,0-3.8,1.52,5.31,5.31,0,0,0-1.5,3.9,5.31,5.31,0,0,0,1.5,3.9m4.72-14a8.74,8.74,0,0,1,6.63,2.94,10.16,10.16,0,0,1,2.75,7.2,10.16,10.16,0,0,1-2.75,7.2,8.74,8.74,0,0,1-6.63,2.94,7.42,7.42,0,0,1-6.22-2.8V34h-5V7.12h5v10a7.42,7.42,0,0,1,6.22-2.8" transform="translate(-0.27 -0.32)"/><rect class="a" x="115.19" y="14.49" width="4.96" height="19.21"/><path class="a" d="M117.92,12.5a2.91,2.91,0,0,1-2.13-.9,3,3,0,0,1-.9-2.14,3,3,0,0,1,.9-2.15,2.89,2.89,0,0,1,2.13-.92,2.93,2.93,0,0,1,2.17.92,3,3,0,0,1,.9,2.15,3.07,3.07,0,0,1-3.07,3" transform="translate(-0.27 -0.32)"/><path class="a" d="M136,19.57h-4.28v7.26c0,1.9.76,2,2.18,2,.85,0,1,0,2.1,0V34c-4.08,0-5.75.06-7.14-1s-2.1-2.49-2.1-5.49v-8h-2.46V14.8h2.46V10.17l5-1.49V14.8H136Z" transform="translate(-0.27 -0.32)"/><path class="a" d="M143.9,22.6h9.8A4.67,4.67,0,0,0,152,19.68a5,5,0,0,0-3-1,5.2,5.2,0,0,0-3.3,1,4.86,4.86,0,0,0-1.73,2.86m.08,3.85c.66,2.4,2.47,3.61,5.41,3.61a5.09,5.09,0,0,0,4.31-1.92l4,2.3a9.51,9.51,0,0,1-8.37,4.11,10.34,10.34,0,0,1-7.65-2.88,9.84,9.84,0,0,1-2.88-7.26,10,10,0,0,1,2.84-7.24,9.76,9.76,0,0,1,7.3-2.9,9.16,9.16,0,0,1,7,2.92,10.12,10.12,0,0,1,2.74,7.22,11.48,11.48,0,0,1-.19,2Z" transform="translate(-0.27 -0.32)"/><polygon class="a" points="162.02 6.8 162.02 33.7 166.98 33.7 166.98 24.97 173.97 33.7 179.73 33.7 171.78 23.98 179.5 14.49 173.59 14.49 166.98 22.97 166.98 6.8 162.02 6.8"/><polygon class="a" points="57.41 6.8 62.67 6.8 62.67 33.7 57.41 33.7 57.41 22.55 47.42 22.55 47.42 33.7 42.11 33.7 42.11 6.8 47.42 6.8 47.42 17.48 57.41 17.48 57.41 6.8"/></svg>