<?xml version="1.0" encoding="UTF-8"?>
<svg id="Lager_2" data-name="Lager 2" xmlns="http://www.w3.org/2000/svg" xmlns:xlink="http://www.w3.org/1999/xlink" viewBox="0 0 85.6 37.53">
  <defs>
    <style>
      .cls-1 {
        fill: none;
      }

      .cls-2 {
        clip-path: url(#clippath);
      }

      .cls-3 {
        fill: #ecd898;
      }

      .cls-4 {
        fill: #152c46;
      }

      .cls-5 {
        fill: #1c1b1a;
      }
    </style>
    <clipPath id="clippath">
      <rect class="cls-1" width="85.6" height="37.53"/>
    </clipPath>
  </defs>
  <g id="Lager_1-2" data-name="Lager 1">
    <g class="cls-2">
      <g>
        <g>
          <path class="cls-4" d="m.36,27.51c0,2.38,1.49,4.51,3.73,5.33l11.86,4.31,11.86-4.31c2.24-.81,3.73-2.94,3.73-5.33V.3H.36v27.21Z"/>
          <polygon class="cls-5" points="41.03 5.62 39.35 5.91 39.35 15.9 45.16 15.9 45.16 14.38 41.03 14.38 41.03 5.62"/>
          <polygon class="cls-5" points="46.88 15.9 48.49 15.9 48.49 8.28 46.88 8.56 46.88 15.9"/>
          <path class="cls-5" d="m47.68,6.88c.29,0,.52-.1.71-.29.18-.19.27-.42.27-.68s-.09-.49-.26-.68c-.17-.2-.41-.29-.7-.29s-.52.1-.71.29c-.18.19-.27.42-.27.68s.09.49.27.68c.18.2.41.29.69.29Z"/>
          <path class="cls-5" d="m53.18,16.11c.48,0,.91-.08,1.3-.25s.71-.42.98-.73c.04.15.09.29.14.42s.11.25.17.36h1.11V4.66l-1.61.28v3.65c-.29-.12-.59-.21-.91-.28-.32-.07-.63-.1-.95-.1-.53,0-1,.1-1.41.29-.41.19-.76.46-1.04.81-.29.34-.5.75-.64,1.23-.15.48-.22.99-.22,1.54v.35c0,.61.08,1.15.23,1.6s.37.85.64,1.15c.28.31.6.54.98.7s.78.23,1.22.23Zm-1.47-4.12c0-.72.17-1.29.5-1.73.33-.43.81-.65,1.44-.65.26,0,.52.03.79.1s.55.15.85.26v2.88c-.02.6-.19,1.06-.51,1.37-.32.31-.74.47-1.25.47-.56,0-1-.19-1.33-.58-.33-.39-.49-.96-.49-1.71v-.42Z"/>
          <path class="cls-5" d="m59.72,6.88c.29,0,.52-.1.71-.29.18-.19.27-.42.27-.68s-.09-.49-.26-.68c-.17-.2-.41-.29-.7-.29s-.52.1-.71.29c-.18.19-.27.42-.27.68s.09.49.27.68c.18.2.41.29.69.29Z"/>
          <polygon class="cls-5" points="60.53 8.28 58.93 8.56 58.93 15.9 60.53 15.9 60.53 8.28"/>
          <path class="cls-5" d="m68.43,9.14c-.23-.29-.53-.53-.89-.69-.36-.17-.78-.25-1.26-.25-.45,0-.87.1-1.26.29-.39.19-.73.47-1,.83-.05-.17-.11-.36-.18-.56-.07-.21-.13-.37-.19-.49l-1.07.2v7.42h1.61v-4.2c0-.62.15-1.12.46-1.51.3-.38.73-.58,1.27-.58s.95.18,1.22.53.41.88.41,1.57v4.19h1.61v-4.46c0-.45-.06-.87-.18-1.27-.12-.39-.3-.74-.53-1.03Z"/>
          <path class="cls-5" d="m74.65,14.8h-1.35c-.51,0-.96.06-1.33.18s-.7.29-.95.51c-.25.22-.45.48-.58.77-.13.29-.2.62-.2.97,0,.71.25,1.29.76,1.74.51.45,1.27.67,2.28.67h1.38c.51,0,.96-.06,1.33-.18.38-.12.7-.29.95-.51.26-.22.45-.48.58-.77s.2-.61.2-.96c0-.72-.26-1.31-.77-1.75-.51-.45-1.28-.68-2.31-.68Zm-.09,3.53h-1.14c-.55,0-.96-.1-1.25-.29-.28-.2-.42-.47-.42-.82,0-.73.55-1.09,1.65-1.09h1.16c.54,0,.95.1,1.23.29.28.19.42.47.42.82,0,.73-.55,1.1-1.65,1.1Z"/>
          <path class="cls-5" d="m74.12,8.2c-.58,0-1.08.08-1.51.23-.43.16-.79.37-1.07.63-.29.27-.5.57-.65.92-.15.35-.22.73-.22,1.12,0,.42.07.81.21,1.16.14.35.34.66.61.91.27.25.58.44.95.58s.77.21,1.22.21.83-.07,1.19-.22.68-.35.95-.61c.27-.26.48-.56.64-.91s.23-.72.23-1.12c0-.32-.06-.61-.17-.87-.12-.26-.26-.5-.43-.7h1.62l.18-1.09c-.63-.08-1.26-.14-1.9-.18s-1.25-.06-1.85-.06Zm.67,4.01c-.3.3-.67.45-1.12.45-.23,0-.44-.04-.63-.12-.19-.08-.35-.19-.5-.33-.14-.14-.25-.3-.33-.49-.08-.19-.12-.39-.12-.61,0-.46.15-.84.45-1.13.3-.3.68-.45,1.12-.45.22,0,.43.04.62.12.19.08.36.19.5.33.14.14.25.3.33.49.08.19.12.39.12.61,0,.46-.15.84-.45,1.13Z"/>
          <path class="cls-5" d="m83.39,7.26c.27,0,.49-.09.66-.27.17-.18.25-.4.25-.66s-.08-.47-.25-.65c-.17-.18-.39-.27-.66-.27s-.49.09-.66.27c-.17.18-.26.4-.26.66s.08.47.26.65c.17.18.39.27.66.27Z"/>
          <path class="cls-5" d="m84.47,9.17c-.62-.65-1.46-.97-2.53-.97-.52,0-.99.08-1.42.25s-.79.42-1.09.73c-.31.32-.54.71-.71,1.18-.17.46-.25.99-.25,1.57v.45c0,1.2.31,2.12.93,2.77.62.65,1.46.97,2.54.97.52,0,.99-.08,1.42-.25s.79-.42,1.09-.74c.31-.32.54-.71.71-1.17s.25-.98.25-1.57v-.45c0-1.2-.31-2.12-.93-2.77Zm-.67,3.19c0,.78-.16,1.37-.48,1.76-.32.4-.78.59-1.38.59s-1.05-.2-1.37-.6c-.33-.4-.49-.97-.49-1.71v-.44c0-.78.16-1.37.48-1.76.32-.4.78-.59,1.38-.59s1.05.2,1.37.6.49.97.49,1.71v.44Z"/>
          <path class="cls-5" d="m80.47,7.26c.27,0,.49-.09.66-.27.17-.18.25-.4.25-.66s-.08-.47-.25-.65c-.17-.18-.39-.27-.66-.27s-.49.09-.66.27c-.17.18-.25.4-.25.66s.08.47.25.65c.17.18.39.27.66.27Z"/>
          <path class="cls-5" d="m44.1,24.91c-.23-.17-.5-.32-.82-.44-.32-.11-.68-.21-1.08-.29-.59-.12-.99-.26-1.19-.43s-.31-.36-.31-.59c0-.27.12-.47.38-.61.25-.14.58-.21,1-.21.35,0,.71.04,1.09.13.38.09.75.2,1.09.31l.33-1.09c-.42-.23-.84-.41-1.26-.52-.42-.12-.9-.18-1.42-.18-.85,0-1.53.21-2.05.62s-.77.97-.77,1.68c0,.32.06.6.18.85s.29.46.5.64c.21.18.46.33.75.45s.61.22.95.29c.31.07.58.13.79.19s.4.13.54.21c.14.08.24.17.31.28.06.1.1.24.1.4,0,.28-.13.5-.38.66-.25.16-.64.24-1.15.24-.44,0-.86-.05-1.25-.17-.39-.11-.76-.23-1.12-.38l-.39,1.17c.45.23.9.41,1.35.53.45.12.95.19,1.49.19.44,0,.85-.05,1.22-.15.38-.1.7-.25.97-.45.27-.2.48-.45.64-.74.16-.29.23-.64.23-1.04,0-.35-.06-.65-.19-.9s-.3-.46-.52-.64Z"/>
          <path class="cls-5" d="m49.92,27.38c-.15.03-.32.04-.49.04-.33,0-.57-.09-.72-.27s-.22-.44-.22-.77v-3.81h1.88v-1.41h-1.88v-2.25l-1.61.28v1.97h-1.22v1.41h1.22v4.04c0,.32.04.62.12.89s.21.5.38.7c.17.19.4.35.67.46.27.12.6.17.99.17.26,0,.53-.03.82-.1s.52-.14.71-.23l-.2-1.22c-.15.04-.3.07-.46.1Z"/>
          <path class="cls-5" d="m56.89,21.67c-.29-.24-.62-.41-1.01-.52-.39-.11-.81-.17-1.25-.17-.56,0-1.07.07-1.54.22s-.87.3-1.22.47l.38,1.08c.29-.1.61-.2.95-.3.34-.1.73-.15,1.16-.15.64,0,1.11.13,1.4.4.29.26.44.7.45,1.31v.12h-1.6c-.51,0-.96.06-1.33.18s-.7.29-.95.5c-.26.22-.45.47-.58.77s-.2.62-.2.97c0,.33.06.64.18.92.12.28.29.52.51.72s.49.36.81.47c.32.12.68.17,1.07.17.5,0,.95-.1,1.36-.29s.74-.48,1.01-.85c.03.2.08.38.13.55.06.17.14.3.25.41h.95v-4.63c0-.55-.08-1.02-.25-1.4-.17-.38-.39-.7-.68-.94Zm-.67,3.98c0,.27-.05.52-.14.75-.1.23-.23.43-.39.59-.17.17-.36.29-.59.38-.23.09-.48.13-.75.13-.42,0-.74-.1-.95-.31-.21-.21-.32-.45-.32-.73,0-.32.13-.58.39-.77.26-.2.63-.29,1.11-.29h1.65v.24Z"/>
          <path class="cls-5" d="m64.38,21.34c-.29-.12-.59-.21-.91-.28-.32-.07-.63-.1-.95-.1-.53,0-1,.1-1.41.29-.41.19-.76.46-1.04.81-.29.34-.5.75-.64,1.23-.15.48-.22.99-.22,1.54v.35c0,.61.08,1.15.23,1.6s.37.85.64,1.15c.28.31.6.54.98.7s.78.23,1.22.23c.48,0,.91-.08,1.3-.25s.71-.42.98-.73c.04.15.09.29.14.42s.11.25.17.36h1.11v-11.23l-1.61.28v3.65Zm0,4.26c-.02.6-.19,1.06-.51,1.37-.32.31-.74.47-1.25.47-.56,0-1-.19-1.33-.58-.33-.39-.49-.96-.49-1.71v-.42c0-.72.17-1.29.5-1.73.33-.43.81-.65,1.44-.65.26,0,.52.03.79.1s.55.15.85.26v2.88Z"/>
        </g>
        <g>
          <path class="cls-3" d="m20.9,19.42c1.55.58,2.72,1.1,2.85,1.17-.61-.82-1.11-1.65-1.5-2.49-.92-1.93-1.29-3.9-1.07-5.81,0-.04.01-.09.02-.13.03-.23.06-.45.11-.68.03-.16.07-.33.11-.49.02-.09.05-.19.07-.28.4-1.43,1.15-2.79,2.23-4.02l-1.82.32-.24.26c-3.13,3.28-3.39,8.06-.76,12.16"/>
          <path class="cls-3" d="m15.74,8.24c-2.2,2.37-2.68,6.31-1.43,9.61.05,0,.09,0,.14,0,.61,0,1.31.1,2.04.25-1.45-3.54-1.02-7.55,1.26-10.36l-1.85.33-.16.17Z"/>
          <path class="cls-3" d="m17.37,18.3c.82.21,1.66.47,2.44.74-2.21-4.02-1.89-8.53.92-11.82l-1.83.32-.2.22c-2.57,2.72-3.01,6.95-1.32,10.55"/>
          <path class="cls-3" d="m12.91,8.59l-.12.13c-2.01,2.2-2.4,6.4-1.16,9.58.49-.21,1.12-.37,1.93-.43-1.15-3.28-.73-7.08,1.23-9.62l-1.87.33Z"/>
          <path class="cls-3" d="m9.83,9.21c-2.4,2.69-2.04,8.53-.01,11.1l.09.11c.02-.33.18-1.15,1.09-1.77-1.22-3.06-1.16-7.18.81-9.87l-1.89.33-.08.09Z"/>
        </g>
        <path class="cls-3" d="m7.99,5.51c3.76-1.23,3.91,2.69,7.96.49,0,0,0-2.14,0-2.14-4.83,3.25-2.32-2.98-9.21,2,.45-.08,1.25-.35,1.25-.35Z"/>
        <path class="cls-3" d="m22.72,26.08h-13.57c-2.13,0-3.54-1.26-3.92-3.39l-.31.06c.06,1.23.39,2.27.97,2.98.67.83,1.69,1.25,3.02,1.25h14.08c1.37,0,2.42-.46,3.11-1.35.63-.82.86-1.88.87-2.88l-.29-.05c-.31,1.79-1.57,3.39-3.95,3.39"/>
        <path class="cls-3" d="m27.9,22.24c-.06-.39-.14-.76-.25-1.11-.2-.68-.66-2.09-.75-2.42-.1-.35.03-.53.03-.53,0,0,.21.37.61.27.37-.1.39-.51.28-.76-.17-.41-.77-.61-1.24-.26-.69.52-.47,1.34-.26,2.56.12.75.01,1.4-.24,1.93l1.83.32Z"/>
        <path class="cls-3" d="m5.4,16.44c.19,0,.34.15.34.34s-.15.34-.34.34-.34-.15-.34-.34.15-.34.34-.34m-.91,1.58c.28.26.13.43-.21,1.84-.18.81-.31,1.62-.37,2.4l1.92-.34c-.24-.5-.36-1.1-.29-1.76.12-1.16.41-2.96,1.32-3.99,0,0-.85.08-1.55-.16-.76-.25-1.01-.31-1.5-.18-.49.13-.62.88-.62.88,0,0,1.29-.54,1.4.31.08.65-1.14.34-1.14.34l.21.7s.54-.28.83-.03"/>
        <path class="cls-3" d="m27.98,22.92l-.3-.05c-.03,1.11-.31,2.27-1.02,3.19-.82,1.07-2.09,1.63-3.68,1.63h-14.08c-1.56,0-2.76-.51-3.58-1.51-.77-.94-1.06-2.14-1.13-3.31l-.3.05c-.05,3.15,1.22,5.72,5.08,5.72h13.96c4.13,0,5.25-3,5.05-5.73"/>
        <path class="cls-3" d="m22.14,24.97c-.47,0-.9-.18-1.24-.46-.34.28-.76.46-1.24.46s-.9-.18-1.24-.46c-.34.28-.76.46-1.24.46s-.9-.18-1.24-.46c-.34.28-.76.46-1.24.46s-.9-.18-1.24-.46c-.34.28-.76.46-1.24.46s-.9-.18-1.24-.46c-.34.28-.76.46-1.24.46-.96,0-1.75-.7-1.9-1.62-.65-.08-1.23-.36-1.64-.83l-.32.06c.22,1.18.93,2.79,3.22,2.79h13.57c2.06,0,3-1.38,3.25-2.8l-.3-.05c-.42.47-1,.75-1.63.82-.15.92-.94,1.62-1.9,1.62"/>
        <path class="cls-3" d="m22.14,22.65c.21,0,.38.17.38.38s-.17.38-.38.38-.38-.17-.38-.38.17-.38.38-.38m0,1.59c.67,0,1.21-.54,1.21-1.21s-.54-1.21-1.21-1.21c-.3,0-.57.12-.78.3.15.27.24.58.24.91s-.09.64-.24.91c.21.18.48.3.78.3"/>
        <path class="cls-3" d="m19.67,22.65c.21,0,.38.17.38.38s-.17.38-.38.38-.38-.17-.38-.38.17-.38.38-.38m0,1.59c.67,0,1.21-.54,1.21-1.21s-.54-1.21-1.21-1.21c-.3,0-.57.12-.78.3.15.27.24.58.24.91s-.09.64-.24.91c.21.18.48.3.78.3"/>
        <path class="cls-3" d="m17.19,22.65c.21,0,.38.17.38.38s-.17.38-.38.38-.38-.17-.38-.38.17-.38.38-.38m0,1.59c.67,0,1.21-.54,1.21-1.21s-.54-1.21-1.21-1.21c-.3,0-.57.12-.78.3.15.27.24.58.24.91s-.09.64-.24.91c.21.18.48.3.78.3"/>
        <path class="cls-3" d="m14.72,22.65c.21,0,.38.17.38.38s-.17.38-.38.38-.38-.17-.38-.38.17-.38.38-.38m0,1.59c.67,0,1.21-.54,1.21-1.21s-.54-1.21-1.21-1.21c-.3,0-.57.12-.78.3.15.27.24.58.24.91s-.09.64-.24.91c.21.18.48.3.78.3"/>
        <path class="cls-3" d="m12.25,22.65c.21,0,.38.17.38.38s-.17.38-.38.38-.38-.17-.38-.38.17-.38.38-.38m0,1.59c.67,0,1.21-.54,1.21-1.21s-.54-1.21-1.21-1.21c-.3,0-.57.12-.78.3.15.27.24.58.24.91s-.09.64-.24.91c.21.18.48.3.78.3"/>
        <path class="cls-3" d="m9.78,23.42c-.21,0-.38-.17-.38-.38s.17-.38.38-.38.38.17.38.38-.17.38-.38.38m0-1.59c-.67,0-1.21.54-1.21,1.21s.54,1.21,1.21,1.21,1.21-.54,1.21-1.21-.54-1.21-1.21-1.21"/>
      </g>
    </g>
  </g>
</svg>