<svg xmlns:svg="http://www.w3.org/2000/svg" xmlns="http://www.w3.org/2000/svg" viewBox="0 0 354.3 141.7" height="141.7" width="354.3" xml:space="preserve" version="1.1"><style>.s0{fill:#fff;}.s1{fill:#000;}</style><defs><clipPath clipPathUnits="userSpaceOnUse"><path d="m0 1133.9 2830 0 0-1130-2830 0L0 1133.9"/></clipPath></defs><g transform="matrix(1.25,0,0,-1.25,0,141.7375)"><g transform="scale(0.1,0.1)"><g clip-path="url(#clipPath18)"><path d="m0 316.5 2834.7 0 0 817.4-2834.7 0 0-817.4z" fill="#4078c8"/><path d="m318.5 447.7 62.6 0 0 561.9-62.6 0 0-561.9zM941.8 609.8c0-98.1-76.5-173.2-173.9-173.2-97.4 0-173.9 75.1-173.9 173.2 0 98.1 76.5 173.2 173.9 173.2 97.4 0 173.9-75.1 173.9-173.2zm-285.2 0c0-61.2 49.4-113.4 111.3-113.4 61.9 0 111.3 52.2 111.3 113.4 0 61.9-49.4 113.4-111.3 113.4-61.9 0-111.3-51.5-111.3-113.4M1352.8 680.7c-25 28.5-55.7 43.8-93.2 43.8-61.2 0-108.5-54.3-108.5-114.1 0-66.8 46.6-115.5 112.7-115.5 36.2 0 65.4 16.7 89 43.1l0-80c-28.5-15.3-57-21.6-89.7-21.6-96 0-174.6 73.7-174.6 171.1 0 100.9 77.9 175.3 178.1 175.3 29.2 0 61.2-7 86.3-21.6l0-80.7M1608.7 773.2l0-180.2c0-52.2 13.2-98.1 75.1-98.1 61.9 0 75.1 45.9 75.1 98.1l0 180.2 62.6 0 0-187.1c0-89-41.7-149.6-137.7-149.6-96 0-137.7 60.5-137.7 149.6l0 187.1 62.6 0M2061.5 732.2l1.4 0c18.1 28.5 50.8 50.8 86.3 50.8 42.4 0 73.1-21.6 93.9-57.7 20.2 34.8 59.1 57.7 100.2 57.7 85.6 0 107.8-66.8 107.8-140.5l0-194.8-62.6 0 0 184.4c0 41.7-5.6 95.3-60.5 95.3-66.8 0-71.7-69.6-71.7-119.6l0-160-62.6 0 0 172.5c0 42.4-2.1 107.1-59.8 107.1-66.8 0-72.4-68.9-72.4-119.6l0-160-62.6 0 0 325.6 62.6 0 0-41M2719.5 478.6c0-22.3-18.1-40.3-40.3-40.3-22.3 0-40.3 18.1-40.3 40.3 0 21.6 18.1 40.4 40.4 40.4 22.3 0 40.4-18.8 40.4-40.4" fill="#fff"/><path d="m414.2 114.5 0-2.2c-2 0-3.9-2-5-4.7L373.8 26.3c-0.6-1.6-1.1-2.3-1.1-3.4 0-0.9 0.8-1.4 2.5-1.6l0-2.2-25.7 0 0 2.2c1.7 0 2 0.8 2 1.6 0 0.5-0.8 2.3-1.4 3.6l-37.1 81.2c-0.9 1.9-1.6 4.7-5 4.7l0 2.2 26.9 0 0-2.2c-1.4 0-2.5-0.5-2.5-1.6 0-1.1 3.4-7.7 9.7-21.4l21-46.8 20.3 46.8c4.2 9.7 9.1 20.2 9.1 21.4 0 1.1-1.2 1.6-2.5 1.6l0 2.2 24.1 0M470.7 124.8l0 18.5 20 0 0-18.5-20 0zm30.7 0 0 18.5 20 0 0-18.5-20 0zM442.7 19.1l0 2.2c3.1 0.2 3.4 2.8 5.5 7.4l35.4 78.7c0.5 1.1 1.1 2.2 1.1 3.4 0 0.6-0.8 1.6-1.7 1.6l0 2.2 27.4 0 0-2.2c-0.9 0-1.9-0.6-1.9-1.6 0-1.1 0.8-2 1.4-3.4l37.5-81.3c1.4-3.1 2.5-4.7 3.9-4.7l0-2.2-25.5 0 0 2.2c1.3 0 2 0.5 2 1.6 0 1.7-0.8 2.5-9.5 21.9l-45 0c-8-18.8-8.9-20.2-8.9-21.3 0-1.6 0.9-2.2 2.7-2.2l0-2.2-24.2 0zm52.9 75.4-15.5-34.4 31.3 0-15.8 34.4M615.6 58.8l0-33.8c0-2.8 0.5-3.7 2.8-3.7l0-2.2-25.2 0 0 2.2c2.8 0 3.3 0.9 3.3 3.8l0 83.5c0 2.8-0.5 3.8-3.3 3.8l0 2.2 53.2 0c28.5 0 44.9-7.5 44.9-29.1C691.4 71 680.6 60.4 664.8 58.8l23.8-33.9c1.4-2 3.4-3.6 5.8-3.6l0-2.2-28.5 0 0 2.2c0.5 0 1.3 0.2 1.3 0.9 0 1.7-2.7 4.8-4.4 7.5l-19.4 29.1-27.7 0zm0 15.3 39.3 0c13.8 0 17.4 4.4 17.4 12.7 0 8.3-7.2 12.4-20.3 12.4l-36.3 0 0-25M742.4 108.5c0 2.8-0.6 3.8-3.1 3.8l0 2.2 51.9 0c33.2 0 49.1-20.7 49.1-47.7 0-27.1-14.1-47.7-49.1-47.7l-51.9 0 0 2.2c2.5 0 3.1 0.9 3.1 3.8l0 83.5zm19.1-74.2 27.8 0c23.2 0 31.9 8.5 31.9 32.4 0 22.1-7.8 32.4-31.9 32.4l-27.8 0 0-64.8M977.4 17.2c0 1.4-1.4 1.9-4.5 1.9l-85.9 0 0 2.2c2.3 0 2.8 0.9 2.8 3.8l0 83.5c0 2.8-0.5 3.8-2.8 3.8l0 2.2 84.8 0c3.3 0 4.5 0.8 4.5 1.9l2.2 0 0-20-2.2 0c0 1.6-1.3 2.8-4.5 2.8l-62.9 0 0-24.1 40.8 0c3.1 0 4.4 0.8 4.4 2.2l2.2 0 0-19.7-2.2 0c0 0.9-1.2 2.2-4.4 2.2l-40.8 0 0-25.4 64 0c3.1 0 4.5 0.8 4.5 2.2l2.2 0 0-19.4-2.2 0M1043.7 25c0-2.8 0.6-3.7 2.2-3.7l0-2.2-21.3 0 0 2.2c1.9 0 2.5 0.9 2.5 3.8l0 83.5c0 2.8-0.6 3.8-2.5 3.8l0 2.2 26.6 0 0-2.2c-0.9 0-1.6-0.3-1.6-1.4 0-1.2 1.3-1.9 2.5-3.3l56.3-59.9 0 60.9c0 2.8-0.6 3.8-2.5 3.8l0 2.2 21.7 0 0-2.2c-2 0-2.7-0.9-2.7-3.7L1125 25c0-2.8 0.6-3.7 2.7-3.7l0-2.2-23.6 0 0 2.2c1.3 0 2 0.6 2 1.6 0 0.8-1.4 2.2-3 3.9l-59.4 63.7 0-65.4M1302.1 75.1c3.1 0 4.4 0.8 4.4 3.1l2.2 0 0-20.7-2.2 0c0 0.9-1.3 2.2-4.4 2.2l-38.5 0 0-34.7c0-2.8 0.5-3.7 2.8-3.7l0-2.2-25.3 0 0 2.2c3 0 3.4 0.9 3.4 3.8l0 83.5c0 2.8-0.5 3.8-3.4 3.8l0 2.2 81.2 0c3.3 0 4.5 0.8 4.5 1.6l2.2 0 0-19.1-2.2 0c0 0.9-1.3 2.2-4.5 2.2l-58.7 0 0-24.1 38.5 0M1394.8 124.8l0 18.5 20 0 0-18.5-20 0zm30.7 0 0 18.5 20 0 0-18.5-20 0zm53.5-58c0-27.7-24.2-49.3-58.8-49.3-34.6 0-58.8 21.6-58.8 49.3 0 27.7 24.3 49.3 58.8 49.3 34.6 0 58.8-21.6 58.8-49.3zm-99.5 0c0-20.2 16.6-33.9 40.7-33.9 24.1 0 40.7 13.8 40.7 33.9 0 20.2-16.6 34-40.7 34-24.1 0-40.7-13.8-40.7-34M1542.1 58.8l0-33.8c0-2.8 0.5-3.7 2.8-3.7l0-2.2-25.2 0 0 2.2c2.8 0 3.3 0.9 3.3 3.8l0 83.5c0 2.8-0.5 3.8-3.3 3.8l0 2.2 53.2 0c28.5 0 44.9-7.5 44.9-29.1 0-14.4-10.8-25-26.6-26.6l23.8-33.9c1.4-2 3.5-3.6 5.8-3.6l0-2.2-28.5 0 0 2.2c0.5 0 1.3 0.2 1.3 0.9 0 1.7-2.7 4.8-4.4 7.5l-19.4 29.1-27.7 0zm0 15.3 39.3 0c13.8 0 17.4 4.4 17.4 12.7 0 8.3-7.2 12.4-20.3 12.4l-36.3 0 0-25M1817.5 114.5l0-2.2c-2 0-3.9-2-5-4.7L1777.1 26.3c-0.6-1.6-1.1-2.3-1.1-3.4 0-0.9 0.8-1.4 2.5-1.6l0-2.2-25.7 0 0 2.2c1.7 0 2 0.8 2 1.6 0 0.5-0.8 2.3-1.4 3.6l-37.1 81.2c-0.9 1.9-1.6 4.7-5 4.7l0 2.2 26.9 0 0-2.2c-1.4 0-2.5-0.5-2.5-1.6 0-1.1 3.5-7.7 9.7-21.4l21-46.8 20.3 46.8c4.2 9.7 9.1 20.2 9.1 21.4 0 1.1-1.3 1.6-2.5 1.6l0 2.2 24.1 0M1877.9 137.6c0 9.1 7.3 16.6 16.6 16.6 9.1 0 16.6-7.5 16.6-16.6 0-9.2-7.5-16.6-16.6-16.6-9.2 0-16.6 7.3-16.6 16.6zm7.5 0c0-5 4.1-9.1 9.1-9.1 4.9 0 9.1 4.1 9.1 9.1 0 4.8-4.2 9.1-9.1 9.1-5 0-9.1-4.2-9.1-9.1zm-44.3-118.6 0 2.2c3.1 0.2 3.5 2.8 5.5 7.4l35.3 78.7c0.5 1.1 1.1 2.2 1.1 3.4 0 0.6-0.8 1.6-1.7 1.6l0 2.2 27.4 0 0-2.2c-0.9 0-1.9-0.6-1.9-1.6 0-1.1 0.8-2 1.4-3.4l37.5-81.3c1.4-3.1 2.5-4.7 3.9-4.7l0-2.2-25.5 0 0 2.2c1.2 0 2 0.5 2 1.6 0 1.7-0.8 2.5-9.5 21.9l-45.1 0c-8-18.8-8.9-20.2-8.9-21.3 0-1.6 0.9-2.2 2.7-2.2l0-2.2-24.3 0zm52.9 75.4-15.5-34.4 31.3 0-15.8 34.4M2010.9 58.8l0-33.8c0-2.8 0.5-3.7 2.8-3.7l0-2.2-25.2 0 0 2.2c2.8 0 3.3 0.9 3.3 3.8l0 83.5c0 2.8-0.5 3.8-3.3 3.8l0 2.2 53.2 0c28.5 0 44.9-7.5 44.9-29.1 0-14.4-10.8-25-26.6-26.6l23.8-33.9c1.4-2 3.4-3.6 5.8-3.6l0-2.2-28.5 0 0 2.2c0.5 0 1.2 0.2 1.2 0.9 0 1.7-2.6 4.8-4.4 7.5l-19.4 29.1-27.7 0zm0 15.3 39.3 0c13.8 0 17.4 4.4 17.4 12.7 0 8.3-7.2 12.4-20.3 12.4l-36.3 0 0-25M2136.3 108.5c0 2.8-0.6 3.8-3.1 3.8l0 2.2 52 0c33.2 0 49.1-20.7 49.1-47.7 0-27.1-14.1-47.7-49.1-47.7l-52 0 0 2.2c2.5 0 3.2 0.9 3.2 3.8l0 83.5zm19.1-74.2 27.8 0c23.2 0 31.9 8.5 31.9 32.4 0 22.1-7.8 32.4-31.9 32.4l-27.8 0 0-64.8M2368.9 17.2c0 1.4-1.4 1.9-4.5 1.9l-85.9 0 0 2.2c2.3 0 2.8 0.9 2.8 3.8l0 83.5c0 2.8-0.5 3.8-2.8 3.8l0 2.2 84.8 0c3.3 0 4.5 0.8 4.5 1.9l2.2 0 0-20-2.2 0c0 1.6-1.2 2.8-4.5 2.8l-62.9 0 0-24.1 40.8 0c3.1 0 4.4 0.8 4.4 2.2l2.2 0 0-19.7-2.2 0c0 0.9-1.2 2.2-4.4 2.2l-40.8 0 0-25.4 64 0c3.1 0 4.6 0.8 4.6 2.2l2.2 0 0-19.4-2.2 0M2434.4 25c0-2.8 0.6-3.7 2.2-3.7l0-2.2-21.3 0 0 2.2c1.9 0 2.5 0.9 2.5 3.8l0 83.5c0 2.8-0.6 3.8-2.5 3.8l0 2.2 26.6 0 0-2.2c-0.9 0-1.6-0.3-1.6-1.4 0-1.2 1.3-1.9 2.5-3.3l56.3-59.9 0 60.9c0 2.8-0.6 3.8-2.5 3.8l0 2.2 21.7 0 0-2.2c-2 0-2.7-0.9-2.7-3.7l0-83.5c0-2.8 0.6-3.7 2.7-3.7l0-2.2-23.6 0 0 2.2c1.3 0 2 0.6 2 1.6 0 0.8-1.4 2.2-3 3.9l-59.4 63.7 0-65.4" fill="#000"/></g></g></g></svg>