<?xml version="1.0" encoding="UTF-8" standalone="no"?>
<svg width="130px" height="16px" viewBox="0 0 130 16" version="1.1" xmlns="http://www.w3.org/2000/svg" xmlns:xlink="http://www.w3.org/1999/xlink">
    <!-- Generator: Sketch 3.8.2 (29753) - http://www.bohemiancoding.com/sketch -->
    <title>Page 1</title>
    <desc>Created with Sketch.</desc>
    <defs>
        <polygon id="path-1" points="0 16 137.6 16 137.6 0 0 0"></polygon>
    </defs>
    <g id="Page-1" stroke="none" stroke-width="1" fill="none" fill-rule="evenodd">
        <g id="Patriam-Ny-Våra-Bostäder" transform="translate(-70.000000, -26.000000)">
            <g id="Page-1" transform="translate(70.000000, 26.000000)">
                <path d="M9.18265599,5.01296296 C9.18265599,3.47777778 8.0549932,2.47037037 6.50491011,2.47037037 L2.74845143,2.47037037 L2.74845143,7.55555556 L6.50491011,7.55555556 C8.0549932,7.55555556 9.18265599,6.54814815 9.18265599,5.01296296 L9.18265599,5.01296296 Z M0,16 L0,0 L6.88200635,0 C10.1689077,0 12,2.30185185 12,5.01296296 C12,7.72407407 10.1453392,10.0259259 6.88200635,10.0259259 L2.74845143,10.0259259 L2.74845143,16 L0,16 L0,16 Z" id="Fill-1" fill="#1D1C1B"></path>
                <polygon id="Fill-3" fill="#1D1C1B" points="19.9764028 16 16.8 16 23.056942 0 26.543058 0 32.8 16 29.6235972 16 28.4529554 12.9296296 22.5112571 12.9296296 23.3445328 10.4592593 23.449614 10.4592593 27.6657679 10.4592593 24.8009218 2.83148148"></polygon>
                <polygon id="Fill-5" fill="#1D1C1B" points="42.2531338 16 42.2531338 2.47037037 37.6 2.47037037 37.6 0 49.6 0 49.6 2.47037037 44.9468662 2.47037037 44.9468662 16"></polygon>
                <path d="M67.4933573,5.01296296 C67.4933573,3.47777778 66.3766607,2.47037037 64.8416517,2.47037037 L61.1217235,2.47037037 L61.1217235,7.55555556 L64.8416517,7.55555556 C66.3766607,7.55555556 67.4933573,6.54814815 67.4933573,5.01296296 L67.4933573,5.01296296 Z M67.2599641,16 L63.8183124,10.0259259 L61.1217235,10.0259259 L61.1217235,16 L58.4,16 L58.4,0 L65.2132855,0 C68.2833034,0 70.2833034,2.06296296 70.2833034,5.01296296 C70.2833034,7.86666667 68.470018,9.4037037 66.6100539,9.71481481 L70.4,16 L67.2599641,16 Z" id="Fill-7" fill="#1D1C1B"></path>
                <mask id="mask-2" fill="white">
                    <use xlink:href="#path-1"></use>
                </mask>
                <g id="Clip-10"></g>
                <polygon id="Fill-9" fill="#1D1C1B" mask="url(#mask-2)" points="79.2 16 82.4 16 82.4 0 79.2 0"></polygon>
                <polygon id="Fill-11" fill="#1D1C1B" mask="url(#mask-2)" points="126.762883 16 126.762883 4.12592593 121.794185 16 120.581486 16 115.637117 4.12592593 115.637117 16 112.8 16 112.8 0 116.799287 0 121.187836 10.5314815 125.598841 0 129.6 0 129.6 16"></polygon>
                <polygon id="Fill-12" fill="#1D1C1B" mask="url(#mask-2)" points="91.9764028 16 88.8 16 95.056942 0 98.543058 0 104.8 16 101.623597 16 100.452955 12.9296296 94.5112571 12.9296296 95.3445328 10.4592593 95.449614 10.4592593 99.6657679 10.4592593 96.8009218 2.83148148"></polygon>
            </g>
        </g>
    </g>
</svg>