<svg xmlns="http://www.w3.org/2000/svg" xmlns:xlink="http://www.w3.org/1999/xlink" width="217" height="79" viewBox="0 0 217 79">
    <defs>
        <path id="prefix__a" d="M0.223 0.227L114.659 0.227 114.659 15.951 0.223 15.951z"/>
        <path id="prefix__c" d="M0.017 0.155L216.827 0.155 216.827 78.902 0.017 78.902z"/>
    </defs>
    <g fill="none" fill-rule="evenodd">
        <g transform="translate(28 63)">
            <mask id="prefix__b" fill="#fff">
                <use xlink:href="#prefix__a"/>
            </mask>
            <path fill="#113F77" d="M13.304 4.79l1.231-2.637S11.706.65 9.47.354C7.263.063 4.059.157 2.283 1.894c-.76.743-1.187 1.742-1.184 2.835.009 3.179 2.735 4.565 5.387 4.546 5.92-.04 6.146.592 6.167 1.676.035 1.86-3.414 2.3-5.919 1.96-2.628-.358-5.208-2.17-5.208-2.17l-1.303 2.6s3.043 2.736 7.671 2.625c.604-.014 7.636.296 7.612-5.027-.01-2.319-1.55-4.096-3.907-4.399-1.769-.227-5.28-.16-6.131-.333-.463-.093-1.444-.258-1.484-1.331-.014-.364.208-.865.832-1.207 1.326-.727 3.879-.435 4.653-.271 2.213.468 3.835 1.392 3.835 1.392M112.457 4.79l1.231-2.637S110.86.65 108.622.354c-2.206-.291-5.41-.197-7.186 1.54-.759.743-1.186 1.742-1.183 2.835.008 3.179 2.734 4.565 5.386 4.546 5.92-.04 6.146.592 6.167 1.676.035 1.86-3.414 2.3-5.919 1.96-2.628-.358-5.208-2.17-5.208-2.17l-1.303 2.6s3.043 2.736 7.671 2.625c.604-.014 7.636.296 7.612-5.027-.01-2.319-1.55-4.096-3.906-4.399-1.77-.227-5.28-.16-6.132-.333-.463-.093-1.444-.258-1.484-1.331-.014-.364.208-.865.833-1.207 1.325-.727 3.878-.435 4.652-.271 2.213.468 3.835 1.392 3.835 1.392" mask="url(#prefix__b)"/>
        </g>
        <path fill="#113F77" d="M47 78L50 78 50 64 47 64zM82.093 73.445L73.925 64.021 71 64.021 71 77.992 73.925 77.992 73.925 68.485 82.093 78 85 78 85 64 82.075 64 82.093 73.445M186.093 73.445L177.925 64.021 175 64.021 175 77.992 177.925 77.992 177.925 68.485 186.093 78 189 78 189 64 186.075 64 186.093 73.445M120 78L123 78 123 64 120 64zM94.213 72.288l2.798-5.52 2.774 5.52h-5.572zM98.898 64h-3.86L88 78h3.323l1.448-2.944h8.458l1.475 2.935H106L98.898 64zM107 64L109.93 64 109.93 75.158 118 75.158 118 78 107 78 107 64M149.028 66.777L144 66.777 144 64 157 64 157 66.765 151.774 66.765 151.774 78 149.024 77.993 149.028 66.777"/>
        <mask id="prefix__d" fill="#fff">
            <use xlink:href="#prefix__c"/>
        </mask>
        <path fill="#113F77" d="M159.543 64.445L171.92 64.445 171.92 67.283 162.32 67.283 162.32 69.823 167.387 69.823 167.387 72.626 162.32 72.626 162.32 75.645 172.242 75.645 172.242 78.419 159.543 78.419 159.543 64.445M62.104 73.047V70.45h6.27v5.881s-2.919 2.746-7.291 2.563c-10.616-.445-10.943-14.358 0-14.899 4.157-.206 7.01 1.785 7.01 1.785l-1.638 2.774s-2.29-1.773-5.372-1.773c-.705 0-5.073.72-5.143 4.406-.071 3.686 2.835 4.775 5.143 4.863 2.587.099 4.42-1.281 4.42-1.281v-1.72h-3.399M216.815 55.439L108.403 55.439 108.412.155 145.139 28.098 145.139 50.499 216.827 50.499 216.815 55.439" mask="url(#prefix__d)"/>
        <path fill="#FCD21F" d="M0.012 55.439L108.424 55.439 108.415 0.155 71.688 28.098 71.688 50.499 0 50.499 0.012 55.439" mask="url(#prefix__d)"/>
    </g>
</svg>
