<svg xmlns="http://www.w3.org/2000/svg" viewBox="0 0 200 70.887" width="200" height="71"><path d="M1.443 59.389A7.729 7.729 0 0 0 9.256 67.4h9.605c5.286 0 6.01 3.128 6.01 3.128S25.6 67.4 30.884 67.4h9.6a7.73 7.73 0 0 0 7.816-8.011V16.375H1.443" fill="#231f20"/><path d="M18.759 29.855c-1.169-1.761-.818-2.905-.784-4.4a4.524 4.524 0 0 0-.994-2.981 2.686 2.686 0 0 1 2.476 1.1c.9 1.327.073 2.609 1.478 4.2A11.863 11.863 0 0 1 23.27 31.6l1.839-11.844 1.815 11.89a7.984 7.984 0 0 0 1.376-3.081c.419-2.07 1.477-2.633 2.559-3.667a4.522 4.522 0 0 0 1.4-2.81 2.683 2.683 0 0 1 .97 2.527c-.3 1.577-1.793 1.9-1.922 4.018a11.843 11.843 0 0 1-1.058 4.355l9.678-7.074-7.119 9.686a7.957 7.957 0 0 0 3.15-1.207c1.762-1.168 2.906-.818 4.4-.785a4.519 4.519 0 0 0 2.98-.993 2.682 2.682 0 0 1-1.1 2.474c-1.328.9-2.611.076-4.2 1.481a11.852 11.852 0 0 1-3.829 2.333l11.844 1.84-11.887 1.82a8 8 0 0 0 3.083 1.377c2.071.418 2.632 1.473 3.668 2.558a4.529 4.529 0 0 0 2.811 1.4 2.687 2.687 0 0 1-2.529.972c-1.576-.3-1.9-1.8-4.016-1.923a11.84 11.84 0 0 1-4.355-1.057l7.072 9.68-9.692-7.123a7.987 7.987 0 0 0 1.208 3.153c1.167 1.761.818 2.905.784 4.4a4.518 4.518 0 0 0 .994 2.979 2.683 2.683 0 0 1-2.474-1.1c-.9-1.329-.076-2.609-1.481-4.2a11.85 11.85 0 0 1-2.332-3.828L25.065 61.7 23.25 49.805a8 8 0 0 0-1.375 3.083c-.42 2.07-1.475 2.632-2.558 3.668a4.528 4.528 0 0 0-1.4 2.81 2.677 2.677 0 0 1-.971-2.528c.3-1.577 1.792-1.9 1.921-4.017a11.818 11.818 0 0 1 1.058-4.354l-9.678 7.071 7.125-9.691a7.965 7.965 0 0 0-3.151 1.208c-1.762 1.166-2.907.817-4.4.784a4.519 4.519 0 0 0-2.98.994 2.681 2.681 0 0 1 1.1-2.474c1.328-.9 2.61-.077 4.2-1.482a11.84 11.84 0 0 1 3.827-2.332L4.118 40.7l11.89-1.816a7.98 7.98 0 0 0-3.082-1.374c-2.071-.42-2.631-1.476-3.667-2.557a4.523 4.523 0 0 0-2.812-1.406 2.688 2.688 0 0 1 2.53-.97c1.577.3 1.9 1.791 4.015 1.92a11.846 11.846 0 0 1 4.357 1.06l-7.073-9.677 9.69 7.123a7.96 7.96 0 0 0-1.207-3.152" fill="#fff"/><path d="M77.814 33.016a3.344 3.344 0 0 0-1.246-2.5 4.53 4.53 0 0 0-2.73-.775 6.511 6.511 0 0 0-1.325.135 3.488 3.488 0 0 0-1.157.449 2.367 2.367 0 0 0-.809.842 2.617 2.617 0 0 0-.3 1.314 1.669 1.669 0 0 0 .438 1.2 3.226 3.226 0 0 0 1.168.752 9.733 9.733 0 0 0 1.65.483q.921.192 1.887.416t1.887.528a6.025 6.025 0 0 1 1.64.819 3.927 3.927 0 0 1 1.156 1.314 4.549 4.549 0 0 1-.134 4.156 4.744 4.744 0 0 1-1.471 1.483 6.638 6.638 0 0 1-2.011.842 9.535 9.535 0 0 1-4.762-.068 6.147 6.147 0 0 1-2.111-1.033 4.943 4.943 0 0 1-1.438-1.763 5.636 5.636 0 0 1-.527-2.527h2.021a3.624 3.624 0 0 0 .393 1.741 3.56 3.56 0 0 0 1.033 1.2 4.365 4.365 0 0 0 1.483.7 6.8 6.8 0 0 0 1.763.224 7.958 7.958 0 0 0 1.449-.134 4.279 4.279 0 0 0 1.314-.461 2.467 2.467 0 0 0 1.3-2.325 2.01 2.01 0 0 0-.438-1.347 3.245 3.245 0 0 0-1.157-.843 8.861 8.861 0 0 0-1.64-.539q-.921-.213-1.887-.415t-1.885-.484a6.519 6.519 0 0 1-1.651-.753 3.676 3.676 0 0 1-1.168-1.19 3.438 3.438 0 0 1-.438-1.82 4.246 4.246 0 0 1 .494-2.1 4.317 4.317 0 0 1 1.314-1.46 5.907 5.907 0 0 1 1.864-.853 8.189 8.189 0 0 1 2.145-.281 8.549 8.549 0 0 1 2.291.292 5.084 5.084 0 0 1 1.842.921 4.607 4.607 0 0 1 1.258 1.583 5.559 5.559 0 0 1 .517 2.28h-2.022m3.846 3.321a10.3 10.3 0 0 1 .483-3.155 7.923 7.923 0 0 1 1.448-2.685A7.064 7.064 0 0 1 86 28.636a8.393 8.393 0 0 1 6.693 0 7.073 7.073 0 0 1 2.4 1.865 7.958 7.958 0 0 1 1.448 2.684 10.528 10.528 0 0 1 0 6.311 7.972 7.972 0 0 1-1.448 2.685 7.071 7.071 0 0 1-2.4 1.864 8.393 8.393 0 0 1-6.693 0 7.061 7.061 0 0 1-2.4-1.864 7.937 7.937 0 0 1-1.457-2.681 10.3 10.3 0 0 1-.483-3.156m2.134 0a9.233 9.233 0 0 0 .314 2.393 6.487 6.487 0 0 0 .988 2.122 5.039 5.039 0 0 0 1.73 1.516 5.808 5.808 0 0 0 5.031 0 5.03 5.03 0 0 0 1.73-1.516 6.507 6.507 0 0 0 .988-2.122 9.272 9.272 0 0 0 0-4.785 6.507 6.507 0 0 0-.988-2.122 5.051 5.051 0 0 0-1.73-1.516 5.808 5.808 0 0 0-5.031 0 5.06 5.06 0 0 0-1.73 1.516 6.487 6.487 0 0 0-.988 2.122 9.237 9.237 0 0 0-.314 2.388zm15.399-8.022h2.134v14.241h8.49v1.796H99.193V28.322m12.242 0h2.268l8.446 13.005h.045V28.322h2.021v16.037h-2.335l-8.379-12.87h-.045v12.87h-2.021V28.322m20.275 0h2.359l6.267 16.037h-2.359l-1.752-4.829h-6.783l-1.8 4.829h-2.2l6.266-16.037m-1.595 9.411h5.437l-2.673-7.479h-.046zm27.316-4.717a3.344 3.344 0 0 0-1.246-2.5 4.53 4.53 0 0 0-2.73-.775 6.511 6.511 0 0 0-1.325.135 3.488 3.488 0 0 0-1.157.449 2.364 2.364 0 0 0-.808.842 2.6 2.6 0 0 0-.3 1.314 1.669 1.669 0 0 0 .439 1.2 3.226 3.226 0 0 0 1.168.752 9.718 9.718 0 0 0 1.651.483q.919.192 1.886.416t1.887.528a6.025 6.025 0 0 1 1.64.819 3.917 3.917 0 0 1 1.156 1.314 4.541 4.541 0 0 1-.134 4.156 4.744 4.744 0 0 1-1.471 1.483 6.648 6.648 0 0 1-2.011.842 9.535 9.535 0 0 1-4.762-.068 6.147 6.147 0 0 1-2.111-1.033 4.943 4.943 0 0 1-1.438-1.763 5.636 5.636 0 0 1-.528-2.527h2.022a3.624 3.624 0 0 0 .393 1.741 3.56 3.56 0 0 0 1.033 1.2 4.365 4.365 0 0 0 1.483.7 6.8 6.8 0 0 0 1.763.224 7.958 7.958 0 0 0 1.449-.134 4.289 4.289 0 0 0 1.314-.461 2.467 2.467 0 0 0 1.3-2.325 2.01 2.01 0 0 0-.439-1.347 3.241 3.241 0 0 0-1.156-.843 8.861 8.861 0 0 0-1.64-.539q-.921-.213-1.887-.415t-1.886-.483a6.519 6.519 0 0 1-1.651-.753 3.666 3.666 0 0 1-1.168-1.19 3.438 3.438 0 0 1-.439-1.82 4.246 4.246 0 0 1 .5-2.1 4.317 4.317 0 0 1 1.314-1.46 5.907 5.907 0 0 1 1.864-.853 8.189 8.189 0 0 1 2.145-.281 8.56 8.56 0 0 1 2.291.292 5.084 5.084 0 0 1 1.842.921 4.619 4.619 0 0 1 1.258 1.583 5.543 5.543 0 0 1 .516 2.28h-2.021m8.219-2.901h-5.346v-1.797h12.826v1.797h-5.346v14.24h-2.134v-14.24m11.276-1.797h2.358l6.267 16.037H183.2l-1.753-4.829h-6.783l-1.8 4.829h-2.2l6.267-16.037m-1.595 9.411h5.436l-2.672-7.479h-.045zm11.457-9.411h5.5A8 8 0 0 1 198 30.208q2 1.887 2 5.751a12.956 12.956 0 0 1-.45 3.582 6.689 6.689 0 0 1-1.392 2.629 6.032 6.032 0 0 1-2.4 1.628 9.63 9.63 0 0 1-3.458.561h-5.5V28.322m2.133 14.241h3.549a8.831 8.831 0 0 0 .9-.057 5.024 5.024 0 0 0 1.145-.269 5.22 5.22 0 0 0 1.2-.618 4.052 4.052 0 0 0 1.067-1.1 6.166 6.166 0 0 0 .775-1.741 9.169 9.169 0 0 0 .3-2.527 10.746 10.746 0 0 0-.281-2.572 4.825 4.825 0 0 0-.921-1.92 4.193 4.193 0 0 0-1.651-1.214 6.431 6.431 0 0 0-2.493-.426h-3.594z" fill="#231f20"/><path fill="#fff" d="M3.034 6.26h43.675v10.115H3.034z"/><path d="M46.353 16.375V6.617H3.39v9.758h-.712V6.26a.363.363 0 0 1 .1-.252.36.36 0 0 1 .253-.1h43.678a.355.355 0 0 1 .357.356v10.111h-.713" fill="#231f20"/><path fill="#fff" d="M49.389 6.361V.357h-2.383V2.67H44.77V.357h-2.551v6.004l2.734 3.211h1.756l2.68-3.211"/><path d="M44.953 9.929a.357.357 0 0 1-.271-.125l-2.735-3.213a.356.356 0 0 1-.084-.232v-6A.354.354 0 0 1 41.968.1a.347.347 0 0 1 .251-.1h2.551a.355.355 0 0 1 .356.357v1.957h1.523V.357A.359.359 0 0 1 46.755.1a.354.354 0 0 1 .251-.1h2.383a.357.357 0 0 1 .357.357v6a.356.356 0 0 1-.085.229L46.983 9.8a.362.362 0 0 1-.274.129h-1.756" fill="#231f20"/><path d="M42.575 6.228l2.542 2.988h1.425l2.489-2.985V.711h-1.668V2.67a.355.355 0 0 1-.357.356H44.77a.357.357 0 0 1-.253-.1.363.363 0 0 1-.1-.253V.713h-1.842v5.515M5.082 2.67H2.844V.357H.357v6.004l2.677 3.211h1.758l2.733-3.211V.357H5.082V2.67" fill="#fff"/><path d="M3.034 9.929A.355.355 0 0 1 2.76 9.8L.082 6.588A.365.365 0 0 1 0 6.359v-6A.358.358 0 0 1 .105.1.353.353 0 0 1 .357 0h2.487A.349.349 0 0 1 3.1.1a.351.351 0 0 1 .1.253v1.961h1.525V.357A.362.362 0 0 1 4.83.1a.357.357 0 0 1 .252-.1h2.443a.347.347 0 0 1 .251.1.351.351 0 0 1 .105.253v6a.351.351 0 0 1-.085.232L5.062 9.8a.357.357 0 0 1-.271.125H3.034" fill="#231f20"/><path d="M.712 6.231L3.2 9.216h1.425l2.543-2.988V.713H5.437V2.67a.351.351 0 0 1-.1.253.357.357 0 0 1-.251.1H2.844a.357.357 0 0 1-.251-.1.364.364 0 0 1-.1-.253V.713H.712v5.518M15.465 2.67h-2.234V.357h-2.437v6.004l2.734 3.211h1.757l2.733-3.211V.357h-2.553V2.67" fill="#fff"/><path d="M13.528 9.929a.362.362 0 0 1-.273-.125l-2.732-3.213a.354.354 0 0 1-.086-.232v-6A.357.357 0 0 1 10.794 0h2.435a.353.353 0 0 1 .356.357v1.957h1.525V.357a.361.361 0 0 1 .1-.253.356.356 0 0 1 .251-.1h2.553a.349.349 0 0 1 .252.1.352.352 0 0 1 .105.253v6a.351.351 0 0 1-.085.232L15.558 9.8a.362.362 0 0 1-.273.125h-1.757" fill="#231f20"/><path d="M11.149 6.228l2.543 2.988h1.428l2.543-2.988V.711h-1.841V2.67a.352.352 0 0 1-.357.356h-2.236a.353.353 0 0 1-.355-.356V.713h-1.725v5.515M25.932 2.67h-2.237V.357H21.26v6.004l2.733 3.211h1.758l2.734-3.211V.357h-2.553V2.67" fill="#fff"/><path d="M23.993 9.929a.357.357 0 0 1-.271-.125l-2.733-3.213a.365.365 0 0 1-.086-.232v-6A.358.358 0 0 1 21.008.1a.353.353 0 0 1 .252-.1h2.44a.347.347 0 0 1 .251.1.348.348 0 0 1 .1.253v1.961h1.524V.357A.363.363 0 0 1 25.681.1a.352.352 0 0 1 .251-.1h2.553a.348.348 0 0 1 .251.1.348.348 0 0 1 .105.253v6a.351.351 0 0 1-.085.232L26.023 9.8a.362.362 0 0 1-.272.125h-1.758" fill="#231f20"/><path d="M21.616 6.228l2.54 2.988h1.43l2.543-2.988V.711h-1.84V2.67a.356.356 0 0 1-.105.253.36.36 0 0 1-.252.1H23.7a.352.352 0 0 1-.355-.356V.713h-1.729v5.515M36.399 2.67h-2.238V.357h-2.435v6.004l2.732 3.211h1.759l2.735-3.211V.357h-2.553V2.67" fill="#fff"/><path d="M34.458 9.929a.358.358 0 0 1-.271-.125l-2.734-3.213a.363.363 0 0 1-.084-.232v-6A.355.355 0 0 1 31.726 0h2.435a.349.349 0 0 1 .252.1.361.361 0 0 1 .105.253v1.961h1.524V.357A.353.353 0 0 1 36.4 0h2.553a.351.351 0 0 1 .25.1.355.355 0 0 1 .1.253v6a.352.352 0 0 1-.086.232L36.488 9.8a.357.357 0 0 1-.271.125h-1.759" fill="#231f20"/><path d="M32.081 6.228l2.542 2.988h1.429L38.6 6.228V.711h-1.847V2.67a.359.359 0 0 1-.1.253.355.355 0 0 1-.25.1h-2.242a.355.355 0 0 1-.356-.356V.713h-1.724v5.515" fill="#fff"/><path fill="#231f20" d="M3.034 12.647h43.675v.713H3.034zm0-3.371h43.675v.713H3.034z"/><path fill="#231f20" d="M24.516 9.632h.711v3.716h-.711zm-10.895 3.372h.713v3.371h-.713zm20.984 0h.712v3.371h-.712zm-11.93 32.169c-.182 0-.377.108-.16.227a4.219 4.219 0 0 0 2.379.76 4.625 4.625 0 0 0 2.481-.767c.216-.141-.009-.233-.241-.233-.5 0-1.317-.27-2.24-.27-.989 0-1.717.283-2.219.283m.907 1.477a2.143 2.143 0 0 0 1.382.538 1.97 1.97 0 0 0 1.336-.538c0-.114-.577.129-1.34.129s-1.377-.23-1.377-.129m.779-9.692a5.91 5.91 0 0 0-1.454-.622 5.381 5.381 0 0 0-3.043.124c-.621.182-.737.326-.7.387s.1.1.755-.07a6.25 6.25 0 0 1 2.9-.048 3.16 3.16 0 0 1 1.349.873 1.222 1.222 0 0 1 .194-.644m5.275 1.249a2.518 2.518 0 0 0-1.466-.478 2.8 2.8 0 0 0-1.473.436.151.151 0 0 0 .174.248 1.958 1.958 0 0 1 .364-.189 2.64 2.64 0 0 1 .312-.1.366.366 0 0 1 .3.356.372.372 0 0 1-.372.372.358.358 0 0 1-.2-.064.937.937 0 0 0 1.83-.285 1.4 1.4 0 0 0-.037-.268 2.433 2.433 0 0 1 .4.224.14.14 0 0 0 .085.026.149.149 0 0 0 .086-.272m-6.51-.068a2.762 2.762 0 0 0-1.474-.438 2.5 2.5 0 0 0-1.465.478.15.15 0 0 0-.037.21.154.154 0 0 0 .124.062.156.156 0 0 0 .087-.027 2.326 2.326 0 0 1 .771-.357.369.369 0 0 1-.168.7.364.364 0 0 1-.233-.088.936.936 0 1 0 1.777-.513c.027.011.057.021.082.03a2.271 2.271 0 0 1 .364.191.15.15 0 0 0 .172-.246"/><path d="M29.9 36.46a5.552 5.552 0 0 0-2.943-.124 4.3 4.3 0 0 0-1.61.659 1.673 1.673 0 0 0-.634 1.616 11.956 11.956 0 0 0 .23 2.122 7.131 7.131 0 0 0 .165.89c.267 1.161.332 1.5.049 1.661a.977.977 0 0 1-.358.093 1.64 1.64 0 0 1-.576-.158c-.182-.065-.373-.051-.5-.105-.191-.083-.3-.181-.284-.1.064.352.313.3.7.446s.189.369.759.369.37-.225.756-.369.654-.092.7-.446c.1-.746-.672-.462-.816-1.048a14.234 14.234 0 0 1-.361-1.684c0-.034-.008-.065-.012-.1a12 12 0 0 1-.064-1.148 2.241 2.241 0 0 1 .3-1.43 2.947 2.947 0 0 1 1.637-.876 5.635 5.635 0 0 1 2.8.048c.657.178.723.133.757.07s-.078-.231-.706-.387" fill="#231f20"/><path d="M24.525 70.612l-.032-.1a2.515 2.515 0 0 0-.134-.311 3.6 3.6 0 0 0-.753-.977 6.682 6.682 0 0 0-4.745-1.468h-9.6a8.016 8.016 0 0 1-5.887-2.448 8.519 8.519 0 0 1-2.283-5.923v-43.01a.354.354 0 0 1 .1-.25.357.357 0 0 1 .252-.105H48.3a.36.36 0 0 1 .357.355v43.013a8.513 8.513 0 0 1-2.287 5.923 8 8 0 0 1-5.884 2.448h-9.6c-4.493.019-5.436 2.258-5.636 2.756-.024.072-.03.1-.03.1a.356.356 0 0 1-.693 0m.346-.082l.347-.08zm-.784-1.833a4.366 4.366 0 0 1 .782.957 4.417 4.417 0 0 1 .781-.957 7.377 7.377 0 0 1 5.232-1.657h9.6a7.372 7.372 0 0 0 7.456-7.659V16.732H1.8v42.656a7.371 7.371 0 0 0 7.457 7.659h9.618a7.371 7.371 0 0 1 5.214 1.653z" fill="#231f20"/></svg>