<svg xmlns="http://www.w3.org/2000/svg" viewBox="0 0 320 120" role="img" aria-label="RM Entreprenad och Fasad AB">
  <g fill="#0F0F0F">
    <!-- Stadssilhuett: enkla byggnader i olika höjder -->
    <rect x="10"  y="48" width="22" height="28"/>
    <rect x="34"  y="36" width="18" height="40"/>
    <polygon points="34,36 43,22 52,36"/>
    <rect x="54"  y="30" width="24" height="46"/>
    <rect x="80"  y="40" width="16" height="36"/>
    <rect x="98"  y="22" width="22" height="54"/>
    <rect x="122" y="32" width="18" height="44"/>
    <rect x="142" y="18" width="26" height="58"/>
    <rect x="170" y="38" width="18" height="38"/>
    <rect x="190" y="26" width="22" height="50"/>
    <rect x="214" y="44" width="16" height="32"/>
    <rect x="232" y="30" width="20" height="46"/>
    <polygon points="232,30 242,18 252,30"/>
    <rect x="254" y="40" width="18" height="36"/>
    <rect x="274" y="34" width="22" height="42"/>
    <rect x="298" y="50" width="14" height="26"/>
    <!-- Fönster (vita glipor) -->
    <g fill="#FAF9F6">
      <rect x="38"  y="42" width="3"  height="5"/>
      <rect x="45"  y="42" width="3"  height="5"/>
      <rect x="38"  y="52" width="3"  height="5"/>
      <rect x="45"  y="52" width="3"  height="5"/>
      <rect x="60"  y="38" width="3"  height="5"/>
      <rect x="67"  y="38" width="3"  height="5"/>
      <rect x="60"  y="48" width="3"  height="5"/>
      <rect x="67"  y="48" width="3"  height="5"/>
      <rect x="60"  y="58" width="3"  height="5"/>
      <rect x="67"  y="58" width="3"  height="5"/>
      <rect x="103" y="28" width="3"  height="5"/>
      <rect x="111" y="28" width="3"  height="5"/>
      <rect x="103" y="40" width="3"  height="5"/>
      <rect x="111" y="40" width="3"  height="5"/>
      <rect x="103" y="52" width="3"  height="5"/>
      <rect x="111" y="52" width="3"  height="5"/>
      <rect x="148" y="24" width="3"  height="5"/>
      <rect x="156" y="24" width="3"  height="5"/>
      <rect x="162" y="24" width="3"  height="5"/>
      <rect x="148" y="36" width="3"  height="5"/>
      <rect x="156" y="36" width="3"  height="5"/>
      <rect x="162" y="36" width="3"  height="5"/>
      <rect x="148" y="48" width="3"  height="5"/>
      <rect x="156" y="48" width="3"  height="5"/>
      <rect x="162" y="48" width="3"  height="5"/>
      <rect x="148" y="60" width="3"  height="5"/>
      <rect x="156" y="60" width="3"  height="5"/>
      <rect x="162" y="60" width="3"  height="5"/>
      <rect x="195" y="32" width="3"  height="5"/>
      <rect x="203" y="32" width="3"  height="5"/>
      <rect x="195" y="44" width="3"  height="5"/>
      <rect x="203" y="44" width="3"  height="5"/>
      <rect x="195" y="56" width="3"  height="5"/>
      <rect x="203" y="56" width="3"  height="5"/>
      <rect x="278" y="40" width="3"  height="5"/>
      <rect x="286" y="40" width="3"  height="5"/>
      <rect x="278" y="52" width="3"  height="5"/>
      <rect x="286" y="52" width="3"  height="5"/>
      <rect x="278" y="64" width="3"  height="5"/>
      <rect x="286" y="64" width="3"  height="5"/>
    </g>
  </g>
  <text x="10" y="102" font-family="Manrope, Inter, sans-serif" font-size="20" font-weight="700" fill="#B5121B" letter-spacing="0.02em">RM Entreprenad &amp; Fasad AB</text>
</svg>
